<svg width="39" height="38" viewBox="0 0 39 38" fill="none" xmlns="http://www.w3.org/2000/svg">
<g clip-path="url(#clip0_40_73)">
<path d="M38.5 19C38.5 8.50658 29.9934 0 19.5 0C9.00658 0 0.5 8.50658 0.5 19C0.5 28.4833 7.44799 36.3438 16.5312 37.7692V24.4922H11.707V19H16.5312V14.8141C16.5312 10.0522 19.3679 7.42188 23.7078 7.42188C25.786 7.42188 27.9609 7.79297 27.9609 7.79297V12.4688H25.5652C23.205 12.4688 22.4688 13.9335 22.4688 15.4375V19H27.7383L26.8959 24.4922H22.4688V37.7692C31.552 36.3438 38.5 28.4833 38.5 19Z" fill="#C6B2A7"/>
</g>
<defs>
<clipPath id="clip0_40_73">
<rect width="38" height="38" fill="white" transform="translate(0.5)"/>
</clipPath>
</defs>
</svg>
